#!OML:ASF F:\VICON\USERDATA\INSTALL\rory3\rory3.ASF
:FULLY-SPECIFIED
:DEGREES
3559
root -2.07144 16.0664 1.3769 3.78072 28.4476 -1.72526
lowerback 14.7505 -2.96683 -0.31477
upperback 0.766281 -3.85477 1.38624
thorax -7.33345 -1.82894 2.44989
lowerneck -22.179 -10.6529 -14.2632
upperneck 16.3085 -12.6924 11.6854
head 10.5711 -5.49586 4.37384
rclavicle 9.79014e-015 2.48481e-016
rhumerus -23.6603 8.67516 -74.1126
rradius 110.86
rwrist 5.78769
rhand -8.12883 16.1416
rfingers 7.12502
rthumb 17.7849 -13.0652
lclavicle 9.79014e-015 2.48481e-016
lhumerus -3.23048 -43.906 93.1165
lradius 116.831
lwrist 0.728532
lhand -7.96461 9.45645
lfingers 7.12502
lthumb 17.9429 38.6488
rfemur -33.981 -13.7877 4.30467
rtibia 49.9245
rfoot -13.6038 -11.6431
rtoes -1.47225
lfemur -15.9597 -7.22389 7.39744
ltibia 48.3498
lfoot -15.1882 -5.17577
ltoes -42.1006
3560
root -1.95988 16.1238 1.31009 3.58153 29.8543 -1.61359
lowerback 14.538 -3.2245 -1.01066
upperback 0.99611 -4.27911 1.78826
thorax -6.86896 -2.01723 3.32602
lowerneck -21.9881 -10.7252 -14.3077
upperneck 16.1559 -12.7406 11.481
head 10.4747 -5.55135 4.30073
rclavicle -4.14342e-015 7.05686e-015
rhumerus -26.0134 8.09415 -75.3883
rradius 112.943
rwrist 5.79573
rhand -8.47092 17.1783
rfingers 7.12502
rthumb 17.4557 -12.0579
lclavicle -4.14342e-015 7.05686e-015
lhumerus -3.55205 -43.7546 93.4056
lradius 116.665
lwrist 0.187754
lhand -7.90089 9.30737
lfingers 7.12502
lthumb 18.0042 38.494
rfemur -32.1382 -13.9526 3.42626
rtibia 48.2915
rfoot -13.821 -12.5898
rtoes 0.388827
lfemur -15.2187 -7.95002 6.48604
ltibia 46.8652
lfoot -16.9556 -3.16911
ltoes -42.4436
3561
root -1.8273 16.1618 1.18382 3.8475 29.7538 -1.8306
lowerback 14.1869 -3.05158 -1.03472
upperback 0.960053 -4.03453 2.07243
thorax -6.70415 -1.89766 3.57099
lowerneck -21.8504 -10.8313 -14.2776
upperneck 16.1077 -12.8664 11.2862
head 10.4318 -5.63339 4.20434
rclavicle -1.64494e-014 -2.127e-014
rhumerus -28.1986 7.36429 -76.6849
rradius 114.98
rwrist 5.9336
rhand -8.26127 18.1276
rfingers 7.12502
rthumb 17.6574 -11.0906
lclavicle -1.64494e-014 -2.127e-014
lhumerus -3.8931 -43.6417 93.5505
lradius 116.568
lwrist -0.230236
lhand -7.21393 9.44741
lfingers 7.12502
lthumb 18.6651 38.5719
rfemur -31.8547 -13.2837 3.00779
rtibia 46.4848
rfoot -13.165 -13.7716
rtoes 1.59461
lfemur -14.8266 -7.37541 5.77975
ltibia 45.5186
lfoot -18.3312 -1.87543
ltoes -41.7721
3562
root -1.69656 16.22 1.05102 4.03993 29.6569 -2.02778
lowerback 14.0142 -2.87836 -1.00193
upperback 0.909131 -3.78446 2.29481
thorax -6.66527 -1.77434 3.73224
lowerneck -21.6344 -10.9383 -14.296
upperneck 16.0855 -13.036 11.2713
head 10.4093 -5.72159 4.17517
rclavicle -3.15074e-014 5.1684e-015
rhumerus -30.2719 6.52407 -77.9634
rradius 117.041
rwrist 6.11245
rhand -7.96555 18.606
rfingers 7.12502
rthumb 17.942 -10.5864
lclavicle -3.15074e-014 5.1684e-015
lhumerus -4.10891 -43.6711 93.4904
lradius 116.494
lwrist -0.428761
lhand -6.74426 9.48919
lfingers 7.12502
lthumb 19.1168 38.5697
rfemur -31.4437 -12.3217 2.51021
rtibia 44.5392
rfoot -12.5454 -15.3525
rtoes 1.60081
lfemur -14.5137 -6.84985 5.14172
ltibia 44.0708
lfoot -19.0847 -1.17827
ltoes -41.919
3563
root -1.56687 16.303 0.932171 4.03476 29.9024 -1.97682
lowerback 14.0076 -2.85022 -1.2767
upperback 0.950316 -3.7731 2.53198
thorax -6.58422 -1.7596 4.13487
lowerneck -21.2485 -11.0111 -14.3503
upperneck 15.9691 -13.1533 11.2214
head 10.3153 -5.79935 4.15422
rclavicle -4.00054e-014 3.00165e-014
rhumerus -32.057 5.87561 -79.1065
rradius 119.014
rwrist 6.25133
rhand -8.0481 19.2929
rfingers 7.12502
rthumb 17.8626 -9.90676
lclavicle -4.00054e-014 3.00165e-014
lhumerus -4.37368 -43.6497 93.4291
lradius 116.391
lwrist -0.503606
lhand -6.83976 9.41115
lfingers 7.12502
lthumb 19.0249 38.5007
rfemur -30.3627 -11.1565 1.63926
rtibia 42.3994
rfoot -12.1947 -17.3212
rtoes 0.840948
lfemur -14.1135 -6.69217 4.36738
ltibia 42.817
lfoot -19.3474 -0.555379
ltoes -42.0272
3564
root -1.43752 16.3998 0.849928 3.7712 30.8725 -1.62935
lowerback 13.9568 -3.04877 -1.99584
upperback 1.18054 -4.12728 2.82672
thorax -6.20979 -1.92164 4.90399
lowerneck -20.8486 -11.0967 -14.5509
upperneck 15.8682 -13.2628 11.2376
head 10.2398 -5.8757 4.18196
rclavicle 5.87906e-014 -1.41137e-014
rhumerus -33.5505 5.41452 -80.0507
rradius 120.973
rwrist 6.35145
rhand -8.35301 20.0667
rfingers 7.12502
rthumb 17.5691 -9.15948
lclavicle 5.87906e-014 -1.41137e-014
lhumerus -4.7341 -43.6156 93.4602
lradius 116.316
lwrist -0.381621
lhand -6.90239 9.22659
lfingers 7.12502
lthumb 18.9647 38.322
rfemur -28.1511 -10.0059 0.393077
rtibia 40.1114
rfoot -12.7266 -19.253
rtoes 1.53004
lfemur -13.4954 -7.18033 3.4746
ltibia 41.5438
lfoot -19.5232 -0.502075
ltoes -41.8469
3565
root -1.29267 16.482 0.72566 3.86984 30.8879 -1.39625
lowerback 13.7995 -3.017 -2.29898
upperback 1.19994 -4.12018 2.99454
thorax -6.06835 -1.91346 5.24032
lowerneck -20.3827 -11.1232 -14.665
upperneck 15.849 -13.3453 11.2913
head 10.1755 -5.93252 4.21828
rclavicle -3.65764e-014 1.15295e-014
rhumerus -34.9506 5.04229 -81.0572
rradius 122.91
rwrist 6.3601
rhand -8.49297 20.5252
rfingers 7.12502
rthumb 17.4345 -8.71299
lclavicle -3.65764e-014 1.15295e-014
lhumerus -5.26004 -43.5747 93.4225
lradius 116.338
lwrist -0.0750685
lhand -6.60105 9.14613
lfingers 7.12502
lthumb 19.2545 38.2129
rfemur -26.9148 -8.37433 -0.683477
rtibia 37.683
rfoot -12.8793 -21.3222
rtoes 3.29918
lfemur -13.0886 -7.01654 2.55552
ltibia 40.415
lfoot -19.5307 -1.20151
ltoes -41.3347
3566
root -1.1496 16.5786 0.596361 4.0192 30.9414 -1.26333
lowerback 13.6879 -3.0653 -2.37551
upperback 1.10305 -4.18857 3.10053
thorax -6.08904 -1.94236 5.40554
lowerneck -19.9514 -11.1147 -14.6273
upperneck 15.9761 -13.419 11.2783
head 10.1514 -5.98082 4.20919
rclavicle 2.127e-014 -1.47101e-014
rhumerus -36.2071 4.86868 -82.1899
rradius 124.705
rwrist 6.25748
rhand -8.68097 20.78
rfingers 7.12502
rthumb 17.2535 -8.47412
lclavicle 2.127e-014 -1.47101e-014
lhumerus -5.97154 -43.4743 93.3131
lradius 116.464
lwrist 0.508825
lhand -6.27243 9.17124
lfingers 7.12502
lthumb 19.5704 38.2062
rfemur -25.7926 -6.40591 -1.66927
rtibia 35.1991
rfoot -13.4455 -23.9419
rtoes 8.64041
lfemur -12.9229 -6.7971 1.79509
ltibia 39.3728
lfoot -19.2386 -2.35793
ltoes -40.3143
3567
root -1.00317 16.687 0.46424 4.14866 30.8201 -1.20287
lowerback 13.5804 -3.12635 -2.29703
upperback 1.01856 -4.25033 3.20072
thorax -6.11092 -1.972 5.4752
lowerneck -19.6854 -11.1053 -14.5931
upperneck 16.2064 -13.459 11.197
head 10.1828 -6.01384 4.17752
rclavicle -7.44449e-014 -1.90833e-014
rhumerus -37.1067 4.98635 -83.2128
rradius 126.373
rwrist 6.06919
rhand -8.84995 21.1948
rfingers 7.12502
rthumb 17.0909 -8.07343
lclavicle -7.44449e-014 -1.90833e-014
lhumerus -6.71116 -43.2492 93.2177
lradius 116.572
lwrist 1.03025
lhand -6.29424 9.08938
lfingers 7.12502
lthumb 19.5495 38.1265
rfemur -24.8996 -3.98577 -2.64133
rtibia 32.7507
rfoot -14.2257 -27.0433
rtoes 14.9212
lfemur -12.7962 -6.40347 1.07554
ltibia 38.5197
lfoot -18.7241 -3.1904
ltoes -39.6328
3568
root -0.85109 16.7958 0.337645 4.40319 30.3817 -0.937456
lowerback 13.3303 -3.10536 -2.37485
upperback 0.968495 -4.23107 3.24124
thorax -6.01859 -1.96319 5.54228
lowerneck -19.2793 -11.0727 -14.6603
upperneck 16.2778 -13.4628 11.2062
head 10.1427 -6.03372 4.20507
rclavicle 1.41137e-014 -1.15295e-014
rhumerus -37.6383 5.28945 -84.0848
rradius 127.721
rwrist 6.22934
rhand -9.56278 22.0438
rfingers 7.12502
rthumb 16.4046 -7.28255
lclavicle 1.41137e-014 -1.15295e-014
lhumerus -7.5557 -42.9896 93.2292
lradius 116.73
lwrist 1.43085
lhand -6.65681 9.20413
lfingers 7.12502
lthumb 19.2009 38.2763
rfemur -24.2971 -1.42168 -3.78133
rtibia 30.5308
rfoot -15.5044 -29.6741
rtoes 19.6503
lfemur -12.5282 -5.66551 0.0980059
ltibia 37.7043
lfoot -18.0863 -3.97218
ltoes -38.6757
3569
root -0.702189 16.9029 0.214476 4.56946 29.708 -0.733867
lowerback 13.1214 -2.9994 -2.44853
upperback 0.918869 -4.09934 3.26807
thorax -5.96233 -1.89819 5.57707
lowerneck -18.5995 -11.0279 -14.7433
upperneck 16.1392 -13.4777 11.2672
head 9.98611 -6.06651 4.2606
rclavicle 1.81888e-014 -1.86858e-014
rhumerus -37.9813 5.69082 -84.8901
rradius 128.817
rwrist 6.6049
rhand -10.7946 22.8272
rfingers 7.12502
rthumb 15.2183 -6.59307
lclavicle 1.81888e-014 -1.86858e-014
lhumerus -8.45685 -42.7457 93.2904
lradius 116.933
lwrist 1.65207
lhand -7.05194 9.33412
lfingers 7.12502
lthumb 18.8209 38.4436
rfemur -23.9119 0.955099 -4.68227
rtibia 28.7317
rfoot -16.7659 -31.2276
rtoes 23.3306
lfemur -12.1379 -4.55227 -0.830944
ltibia 36.9644
lfoot -17.3429 -4.86996
ltoes -37.4917
3570
root -0.557159 17.005 0.0877919 4.67566 28.9062 -0.590562
lowerback 12.9392 -2.86975 -2.45626
upperback 0.91502 -3.92747 3.27608
thorax -5.88283 -1.81652 5.54795
lowerneck -18.1642 -11.0058 -14.7761
upperneck 16.112 -13.5037 11.2863
head 9.90686 -6.09542 4.2834
rclavicle 9.93923e-017 1.98785e-014
rhumerus -38.1839 6.2378 -85.6994
rradius 130.059
rwrist 6.58292
rhand -11.6603 22.9666
rfingers 7.12502
rthumb 14.3843 -6.51503
lclavicle 9.93923e-017 1.98785e-014
lhumerus -9.15732 -42.3922 93.2541
lradius 117.075
lwrist 1.59637
lhand -7.24099 9.23151
lfingers 7.12502
lthumb 18.639 38.3585
rfemur -23.8434 2.68213 -5.27696
rtibia 27.5538
rfoot -16.1379 -31.5698
rtoes 25.3147
lfemur -11.7396 -3.29449 -1.68329
ltibia 36.344
lfoot -16.4921 -5.80267
ltoes -36.3546
3571
root -0.417433 17.0995 -0.0366368 4.80922 28.0584 -0.404981
lowerback 12.7 -2.74091 -2.53939
upperback 0.925904 -3.76844 3.26547
thorax -5.75091 -1.74148 5.53975
lowerneck -17.9755 -10.9637 -14.8461
upperneck 16.2778 -13.4895 11.3713
head 9.94224 -6.09056 4.33476
rclavicle -4.78077e-014 1.51076e-014
rhumerus -38.2175 6.90148 -86.4515
rradius 131.274
rwrist 6.18909
rhand -12.0648 23.0099
rfingers 7.12502
rthumb 13.9946 -6.49903
lclavicle -4.78077e-014 1.51076e-014
lhumerus -9.85462 -41.9779 93.2449
lradius 117.243
lwrist 1.42577
lhand -7.45426 9.13307
lfingers 7.12502
lthumb 18.4339 38.2796
rfemur -24.0756 3.1657 -5.43688
rtibia 27.1456
rfoot -13.0605 -30.2347
rtoes 24.761
lfemur -11.4081 -2.00832 -2.53752
ltibia 35.8463
lfoot -15.6675 -6.63666
ltoes -35.2036
3572
root -0.28759 17.1913 -0.160955 4.91737 27.2514 -0.303564
lowerback 12.5206 -2.61657 -2.56096
upperback 0.883885 -3.60656 3.25427
thorax -5.71288 -1.66262 5.50346
lowerneck -17.811 -10.9338 -14.9884
upperneck 16.6479 -13.4911 11.4637
head 10.0626 -6.0944 4.39734
rclavicle -4.50247e-014 1.07344e-014
rhumerus -38.1576 7.51553 -87.0523
rradius 132.43
rwrist 5.47508
rhand -12.0847 23.0599
rfingers 7.12502
rthumb 13.9754 -6.45036
lclavicle -4.50247e-014 1.07344e-014
lhumerus -10.5988 -41.5821 93.2966
lradius 117.451
lwrist 1.45201
lhand -7.50046 9.15097
lfingers 7.12502
lthumb 18.3894 38.3017
rfemur -24.6235 2.62059 -4.99179
rtibia 27.5573
rfoot -9.29828 -27.7966
rtoes 22.6704
lfemur -11.2034 -0.783055 -3.21926
ltibia 35.4356
lfoot -14.6656 -7.67326
ltoes -33.5995
3573
root -0.164317 17.2854 -0.287231 5.09036 26.6002 -0.184901
lowerback 12.4154 -2.56957 -2.53557
upperback 0.757135 -3.5436 3.20316
thorax -5.80055 -1.62882 5.42337
lowerneck -17.6252 -10.8921 -15.0872
upperneck 17.0499 -13.4738 11.4658
head 10.1773 -6.09693 4.42606
rclavicle -1.03865e-013 4.53229e-014
rhumerus -38.101 8.24652 -87.6718
rradius 133.605
rwrist 4.60091
rhand -12.1212 22.8166
rfingers 7.12502
rthumb 13.9402 -6.69613
lclavicle -1.03865e-013 4.53229e-014
lhumerus -11.3613 -41.1555 93.3433
lradius 117.708
lwrist 1.51488
lhand -7.46588 9.18737
lfingers 7.12502
lthumb 18.4227 38.335
rfemur -25.4829 1.29001 -4.17851
rtibia 28.7592
rfoot -6.66426 -25.5041
rtoes 20.1558
lfemur -11.1746 0.295476 -3.83584
ltibia 35.0797
lfoot -13.4155 -8.91387
ltoes -32.0903
